# AST/ASF file generated using VICON BodyLanguage
# -----------------------------------------------
:version 1.10
:name VICON
:units
  mass 1.0
  length 0.45
  angle deg
:documentation
   .ast/.asf automatically generated from VICON data using
   VICON BodyBuilder and BodyLanguage model FoxedUp or BRILLIANT.MOD
:root
   order TX TY TZ RX RY RZ
   axis XYZ
   position 0 0 0  
   orientation 0 0 0 
:bonedata
  begin
     id 1 
     name lhipjoint
     direction 0.547975 -0.797114 0.253638 
     length 2.36201 
     axis 0 0 0  XYZ
  end
  begin
     id 2 
     name lfemur
     direction 0.34202 -0.939693 0  
     length 7.69075  
     axis 0 0 20  XYZ
    dof rx ry rz
    limits (-160.0 20.0)
           (-70.0 70.0)
           (-60.0 70.0)
  end
  begin
     id 3 
     name ltibia
     direction 0.34202 -0.939693 0   
     length 7.91399   
     axis 0 0 20   XYZ
    dof rx
    limits (-10.0 170.0)
  end
  begin
     id 4 
     name lfoot
     direction 0.0705293 -0.193778 0.978507   
     length 2.13618   
     axis -90 7.62852e-016 20   XYZ
    dof rx rz
    limits (-45.0 90.0)
           (-70.0 20.0)
  end
  begin
     id 5 
     name ltoes
     direction 1.53592e-011 -4.21925e-011 1   
     length 1.07518   
     axis -90 7.62852e-016 20   XYZ
    dof rx
    limits (-90.0 20.0)
  end
  begin
     id 6 
     name rhipjoint
     direction -0.57 -0.782963 0.249136   
     length 2.4047  
     axis 0 0 0  XYZ 
  end
  begin
     id 7 
     name rfemur
     direction -0.34202 -0.939693 0   
     length 7.51486   
     axis 0 0 -20   XYZ
    dof rx ry rz
    limits (-160.0 20.0)
           (-70.0 70.0)
           (-70.0 60.0)
  end
  begin
     id 8 
     name rtibia
     direction -0.34202 -0.939693 0   
     length 8.08317   
     axis 0 0 -20   XYZ
    dof rx
    limits (-10.0 170.0)
 end
 begin
     id 9 
     name rfoot
     direction -0.104954 -0.281256 0.953876   
     length 2.30343  
     axis -90 -7.62852e-016 -20   XYZ
    dof rx rz
    limits (-45.0 90.0)
           (-20.0 70.0)
  end
  begin
     id 10 
     name rtoes
     direction -1.53556e-011 -4.21922e-011 1   
     length 1.14803   
     axis -90 -7.62852e-016 -20   XYZ
    dof rx
    limits (-90.0 20.0)
  end
  begin
     id 11 
     name lowerback
     direction -0.0152855 0.99353 -0.11254   
     length 2.05311   
     axis 0 0 0   XYZ
    dof rx ry rz
    limits (-20.0 45.0)
           (-30.0 30.0)
           (-30.0 30.0)
  end
  begin
     id 12 
     name upperback
     direction -0.00157509 0.999443 -0.033332   
     length 2.06353   
     axis 0 0 0   XYZ
    dof rx ry rz
    limits (-20.0 45.0)
           (-30.0 30.0)
           (-30.0 30.0)
  end
  begin
     id 13 
     name thorax
     direction 0.00577788 0.999804 0.0189484   
     length 2.08472   
     axis 0 0 0   XYZ
    dof rx ry rz
    limits (-20.0 45.0)
           (-30.0 30.0)
           (-30.0 30.0)
  end
  begin
     id 14 
     name lowerneck
     direction -1.09301e-005 0.994719 0.10264   
     length 1.76249   
     axis 0 0 0   XYZ
    dof rx ry rz
    limits (-20.0 45.0)
           (-30.0 30.0)
           (-30.0 30.0)
  end
  begin
     id 15 
     name upperneck
     direction 0.0495018 0.988526 -0.142706   
     length 1.77897   
     axis 0 0 0   XYZ
    dof rx ry rz
    limits (-20.0 45.0)
           (-30.0 30.0)
           (-30.0 30.0)
  end
  begin
     id 16
     name head
     direction 0.0142736 0.998114 -0.0597101  
     length 1.78934  
     axis 0 0 0   XYZ
    dof rx ry rz
    limits (-20.0 45.0)
           (-30.0 30.0)
           (-30.0 30.0)
  end
  begin
     id 17 
     name lclavicle
     direction 0.918111 0.396107 -0.0130883  
     length 3.37276  
     axis 0 0 0   XYZ
    dof ry rz
    limits (-20.0 10.0)
           (0.0 20.0)
  end
  begin
     id 18 
     name lhumerus
     direction 1 -4.48975e-011 -3.26108e-027   
     length 5.34298   
     axis 180 -30 -90   XYZ
    dof rx ry rz
    limits (-60.0 90.0)
           (-90.0 90.0)
           (-90.0 90.0)
  end
  begin
     id 19
     name lradius
     direction 1 -4.48964e-011 -8.84413e-028   
     length 3.67262   
     axis 180 -30 -90   XYZ
    dof rx
    limits (-10.0 170.0)
  end
  begin
     id 20
     name lwrist
     direction 1 -4.48991e-011 -1.24264e-027   
     length 1.83631   
     axis -2.17013e-015 90 90   XYZ
    dof ry
    limits (-180.0 0.0)
 end
  begin
     id 21 
     name lhand
     direction 1 -4.48855e-011 -2.48528e-027   
     length 0.599298   
     axis 1.58582e-015 90 90   XYZ
    dof rx rz
    limits (-90.0 90.0)
           (-45.0 45.0)
  end
  begin
     id 22 
     name lfingers
     direction 1 -4.48811e-011 -4.97056e-027   
     length 0.48317   
     axis 3.17164e-015 90 90   XYZ
    dof rx
    limits (0.0 90.0)
  end
  begin
     id 23
     name lthumb
     direction 0.707107 -6.34882e-011 0.707107   
     length 0.693738   
     axis -90 45 2.85299e-015   XYZ
    dof rx rz
    limits (-45.0 45.0)
           (-45.0 45.0)
  end
  begin
     id 24 
     name rclavicle
     direction -0.920511 0.384752 -0.0680135   
     length 3.43787  
     axis 0 0 0   XYZ 
    dof ry rz
    limits (-10.0 20.0)
           (-20.0 0.0)
  end
  begin
     id 25 
     name rhumerus
     direction -0.999976 -0.00330524 0.00603274  
     length 5.5498   
     axis 180 30 90   XYZ
    dof rx ry rz
    limits (-90.0 60.0)
           (-90.0 90.0)
           (-90.0 90.0)
  end
  begin
     id 26 
     name rradius
     direction -1 -4.48967e-011 8.62438e-027   
     length 3.69401   
     axis 180 30 90   XYZ
    dof rx
    limits (-10.0 170.0)
  end
  begin
     id 27 
     name rwrist
     direction -1 -4.4897e-011 9.54866e-027   
     length 1.84701   
     axis -7.69462e-015 -90 -90   XYZ
    dof ry
    limits (-180.0 0.0)
  end
  begin
     id 28
     name rhand
     direction -1 -4.48982e-011 1.90973e-026   
     length 0.638113   
     axis -1.21857e-014 -90 -90   XYZ
    dof rx rz
    limits (-90.0 90.0)
           (-45.0 45.0)
  end
  begin
     id 29
     name rfingers
     direction -1 -4.48936e-011 3.81946e-026   
     length 0.514463   
     axis -2.43714e-014 -90 -90   XYZ
    dof rx
    limits (0.0 90.0)
  end
  begin
     id 30
     name rthumb
     direction -0.707107 -6.34942e-011 0.707107   
     length 0.738669   
     axis -90 -45 -2.85299e-015   XYZ
    dof rx rz
    limits (-45.0 45.0)
           (-45.0 45.0)
  end
:hierarchy
  begin
    root lhipjoint rhipjoint lowerback
    lhipjoint lfemur
    lfemur ltibia
    ltibia lfoot
    lfoot ltoes
    rhipjoint rfemur
    rfemur rtibia
    rtibia rfoot
    rfoot rtoes
    lowerback upperback
    upperback thorax
    thorax lowerneck lclavicle rclavicle
    lowerneck upperneck
    upperneck head
    lclavicle lhumerus
    lhumerus lradius
    lradius lwrist
    lwrist lhand lthumb
    lhand lfingers
    rclavicle rhumerus
    rhumerus rradius
    rradius rwrist
    rwrist rhand rthumb
    rhand rfingers
  end

#!OML:ASF F:\twosubjects\two\Thursday\Session 1\Rory.ASF
:FULLY-SPECIFIED
:DEGREES
186
root 9.37762 17.7069 7.44364 3.49349 -53.6792 3.99451
lowerback 15.0388 -1.44974 -4.93838
upperback 9.65016 -2.82558 -1.6133
thorax 1.96896 -1.73194 1.43882
lowerneck -0.262559 -16.3952 -12.6604
upperneck -1.15602 -23.0728 26.079
head 4.4323 -11.5706 8.31877
rclavicle 3.61788e-014 -9.54166e-015
rhumerus -66.877 -16.4385 -22.2609
rradius 12.1533
rwrist 68.1093
rhand -23.3 5.72136
rfingers 7.12502
rthumb 3.15338 -24.2351
lclavicle 3.61788e-014 -9.54166e-015
lhumerus -74.1659 2.30725 85.5085
lradius 20.2718
lwrist -32.0521
lhand 0.0242431 33.5909
lfingers 7.12502
lthumb 25.6136 61.8884
rfemur -14.0289 10.8885 1.81163
rtibia 37.058
rfoot -16.9014 -13.8781
rtoes -31.3027
lfemur -25.2053 -5.7036 -3.16857
ltibia 32.0605
lfoot -13.1608 -1.33856
ltoes -13.0513
187
root 9.32289 17.7101 7.38246 -0.421143 -53.633 8.12039
lowerback 14.8308 -1.09421 -7.07164
upperback 9.90625 -2.60436 -2.31607
thorax 2.43511 -1.7238 1.84239
lowerneck -0.929975 -15.5387 -11.8452
upperneck -1.39216 -21.6493 24.7724
head 3.92802 -10.8397 7.99623
rclavicle -1.35174e-014 1.82882e-014
rhumerus -67.5946 -16.7766 -21.8517
rradius 12.1875
rwrist 68.2233
rhand -21.8912 6.39299
rfingers 7.12502
rthumb 4.5138 -23.5389
lclavicle -1.35174e-014 1.82882e-014
lhumerus -74.2908 2.14407 84.7784
lradius 19.8384
lwrist -32.6794
lhand 0.245055 33.7632
lfingers 7.12502
lthumb 25.8251 62.03
rfemur -12.0334 10.741 -0.810906
rtibia 35.0394
rfoot -18.2358 -13.1954
rtoes -34.1067
lfemur -24.0262 -6.56477 -5.70455
ltibia 31.3793
lfoot -13.2056 -0.946878
ltoes -8.16991
188
root 9.29128 17.6879 7.26701 -1.13536 -53.0288 9.15603
lowerback 14.7362 -0.978083 -7.61563
upperback 9.82294 -2.5032 -2.37523
thorax 2.41812 -1.69172 2.06918
lowerneck -1.37682 -14.7232 -11.6439
upperneck -1.66216 -20.3454 23.8284
head 3.54504 -10.1799 7.84934
rclavicle -2.10712e-014 -1.59028e-014
rhumerus -68.5945 -17.1549 -21.2022
rradius 12.2602
rwrist 68.3735
rhand -22.984 5.67415
rfingers 7.12502
rthumb 3.45851 -24.2775
lclavicle -2.10712e-014 -1.59028e-014
lhumerus -74.3996 1.70346 84.2844
lradius 19.3266
lwrist -33.0402
lhand -0.477197 32.7873
lfingers 7.12502
lthumb 25.1332 61.1529
rfemur -10.963 10.3453 -1.23828
rtibia 33.2333
rfoot -19.2031 -13.3181
rtoes -35.6439
lfemur -24.1681 -6.76808 -6.02223
ltibia 30.7358
lfoot -12.5405 -1.11906
ltoes -7.88567
189
root 9.26229 17.6596 7.14985 -0.798826 -52.5856 8.96374
lowerback 14.6112 -0.927164 -7.42442
upperback 9.79123 -2.39704 -2.29649
thorax 2.43224 -1.62864 2.03073
lowerneck -2.01852 -13.9601 -11.1486
upperneck -1.9505 -19.1126 22.712
head 3.16939 -9.54686 7.5703
rclavicle -2.50469e-014 -2.66371e-014
rhumerus -69.3908 -17.7459 -20.5037
rradius 12.2186
rwrist 69.0369
rhand -20.7824 11.134
rfingers 7.12502
rthumb 5.58446 -18.7724
lclavicle -2.50469e-014 -2.66371e-014
lhumerus -74.4303 1.44657 83.3756
lradius 18.8496
lwrist -33.6848
lhand -1.47746 31.3359
lfingers 7.12502
lthumb 24.1745 59.8325
rfemur -10.1573 10.0172 -0.770126
rtibia 31.7065
rfoot -20.3872 -13.4901
rtoes -35.3903
lfemur -24.4016 -7.01239 -5.42555
ltibia 30.2056
lfoot -11.9099 -1.33309
ltoes -6.76635
190
root 9.24727 17.6328 7.0181 0.815771 -52.2206 7.47506
lowerback 14.5396 -0.912274 -6.35734
upperback 9.66194 -2.24299 -2.10519
thorax 2.26395 -1.49392 1.62454
lowerneck -2.69772 -13.2636 -10.2767
upperneck -2.29409 -18.0061 21.6837
head 2.8013 -8.98312 7.23533
rclavicle 1.18078e-013 -2.22639e-014
rhumerus -70.2613 -18.3485 -20.0309
rradius 12.2357
rwrist 69.703
rhand -16.8797 15.0423
rfingers 7.12502
rthumb 9.35145 -14.7302
lclavicle 1.18078e-013 -2.22639e-014
lhumerus -74.2394 1.36527 81.6884
lradius 18.2793
lwrist -34.7662
lhand -0.627099 32.1171
lfingers 7.12502
lthumb 24.9896 60.5028
rfemur -9.99724 10.2602 0.659291
rtibia 30.6179
rfoot -21.7012 -13.8825
rtoes -32.7172
lfemur -25.1013 -6.90476 -3.86008
ltibia 29.8701
lfoot -11.2762 -1.74161
ltoes -6.87526
